<?xml version="1.0" encoding="utf-8"?>
<!-- Generator: Adobe Illustrator 16.0.4, SVG Export Plug-In . SVG Version: 6.00 Build 0)  -->
<!DOCTYPE svg PUBLIC "-//W3C//DTD SVG 1.1//EN" "http://www.w3.org/Graphics/SVG/1.1/DTD/svg11.dtd">
<svg version="1.1" id="Layer_1" xmlns="http://www.w3.org/2000/svg" xmlns:xlink="http://www.w3.org/1999/xlink" x="0px" y="0px"
	 width="496.484px" height="119.121px" viewBox="0 0 496.484 119.121" enable-background="new 0 0 496.484 119.121"
	 xml:space="preserve">
<g>
	
		<image overflow="visible" width="119" height="119" xlink:href="EBAF48DD221C742A.png"  transform="matrix(1 0 0 1 180.915 -23.5293)">
	</image>
	<g>
		<g>
			<g>
				<path fill="#FFFFFF" d="M210.027,51.312c0,0,2.531,11.882,3.273,12.808c0.294,0.371,0.857,0.805,1.872,0.805
					c0.499,0,5.859-1.279,5.859-1.279L238.79,70.5c0,0,3.071-0.017,3.511,0l17.759-6.802c0,0,4.854,1.221,5.348,1.221
					c1.061,0,1.61-0.503,1.846-0.806c0.717-0.941,3.549-12.845,3.549-12.845s0.728,0.492,1.168,0.492
					c0.194,0,0.367-0.039,0.509-0.086c0.315-0.049,0.691-0.186,1.048-0.527c0.952-0.905,2.023-3.398,1.875-14.729l-0.004-0.539
					c0-5.188-0.668-26.567-3.861-26.567c-0.729,0-1.384,0.281-1.891,0.803c-1.143,1.188-1.305,18.745-1.275,20.301l-7.295-1.162
					c-0.394-0.926-0.767-1.823-1.117-2.682c-2.174-5.36-8.633-19.571-10.26-20.561c-0.273-0.163-9.007-5.505-9.39-5.505
					c-0.359,0-0.685-0.016-0.747,0c-0.074,0.019-8.547,5.385-8.617,5.417c-0.601,0.271-7.697,12.408-11.173,20.974
					c-0.352,0.871-0.733,1.79-1.132,2.729l-6.175,0.789c0.025-1.504-0.144-18.958-1.258-20.117c-0.511-0.527-1.17-0.808-1.913-0.808
					c-3.189,0-3.859,21.324-3.859,26.474l-0.006,0.539c-0.145,11.299,0.924,13.777,1.875,14.683
					c0.362,0.348,0.741,0.484,1.057,0.535C208.815,51.858,210.027,51.312,210.027,51.312z"/>
			</g>
			<path fill="#00ACE8" d="M227.965,29.222c0.049-0.146,1.241-3.623,3.989-9.892c2.577-5.874,7.125-6.329,8.457-6.329
				c0.328,0,0.513,0.024,0.513,0.024c8.467,0.118,11.833,15.64,11.973,16.299c0.061,0.294-0.022,0.596-0.229,0.811
				c-0.205,0.239-0.518,0.366-0.844,0.366l0,0l0,0h-22.812l0,0c-0.346,0-0.672-0.146-0.879-0.404
				C227.921,29.842,227.862,29.52,227.965,29.222z"/>
			<path fill="#00ACE8" d="M241.666,36.678v12.651c0,0.645-0.562,1.171-1.25,1.171c-0.692,0-1.25-0.526-1.25-1.171V36.678
				c0-0.649,0.558-1.177,1.25-1.177C241.104,35.501,241.666,36.033,241.666,36.678z"/>
		</g>
	</g>
</g>
<g>
	<g>
		
			<image overflow="visible" width="545" height="99" xlink:href="EBAF48DD221C742E.png"  transform="matrix(1 0 0 1 -24.085 -13.5293)">
		</image>
		<g>
			<g>
				<path fill="#FFFFFF" d="M0.5,56.146V14.854l8.693-4.346l13.039,6.52V32.24l-4.347,2.173l4.347,2.174v17.385l-13.039,6.52
					L0.5,56.146z M13.539,27.894v-6.52l-4.346-2.173v10.866L13.539,27.894z M13.539,49.626v-8.693L9.193,38.76v13.039L13.539,49.626
					z"/>
				<path fill="#FFFFFF" d="M26.578,56.146V17.028l13.039-6.52l8.693,4.346v39.117l-8.693,4.347V38.76l-4.346,2.173v19.559
					L26.578,56.146z M39.617,30.067V19.201l-4.346,2.173V32.24L39.617,30.067z"/>
				<path fill="#FFFFFF" d="M52.656,56.146V14.854l8.693-4.346v8.692l13.039-6.52v8.692l-13.039,6.52v23.905l4.346-2.173v-4.347
					l8.693,4.347v4.346l-13.039,6.52L52.656,56.146z"/>
				<path fill="#FFFFFF" d="M78.734,56.146V17.028l13.039-6.52l8.693,4.346v39.117l-8.693,4.347V38.76l-4.346,2.173v19.559
					L78.734,56.146z M91.773,30.067V19.201l-4.346,2.173V32.24L91.773,30.067z"/>
				<path fill="#FFFFFF" d="M104.812,56.146V17.028l8.693-4.347v39.117l4.346-2.173v-4.347l8.693,4.347v4.346l-13.039,6.52
					L104.812,56.146z"/>
				<path fill="#FFFFFF" d="M130.891,56.146V17.028l8.693-4.347v39.117l4.346-2.173v-4.347l8.693,4.347v4.346l-13.039,6.52
					L130.891,56.146z"/>
				<path fill="#FFFFFF" d="M156.969,56.146V17.028l13.039-6.52l8.693,4.346v39.117l-8.693,4.347V38.76l-4.346,2.173v19.559
					L156.969,56.146z M170.008,30.067V19.201l-4.346,2.173V32.24L170.008,30.067z"/>
				<path fill="#FFFFFF" d="M304.745,56.146V17.028l13.039-6.52l8.692,4.346v8.693l-8.692-4.347l-4.347,2.173v8.693l4.347-2.174
					l8.692,4.347l-13.039,6.52v13.039l4.347-2.173v-4.347l8.692,4.347v4.346l-13.039,6.52L304.745,56.146z"/>
				<path fill="#FFFFFF" d="M330.823,56.146v-8.693l8.692,4.347l4.347-2.173v-8.693l-13.039-6.52V17.028l13.039-6.52l8.692,4.346
					v8.693l-8.692-4.347l-4.347,2.173v8.693l13.039,6.52v17.385l-13.039,6.52L330.823,56.146z"/>
				<path fill="#FFFFFF" d="M356.901,56.146V14.854l8.692-4.346l13.039,6.52v17.385l-13.039,6.52v19.559L356.901,56.146z
					 M369.94,30.067v-8.693l-4.347-2.173V32.24L369.94,30.067z"/>
				<path fill="#FFFFFF" d="M382.979,56.146V17.028l13.039-6.52l8.692,4.346v39.117l-8.692,4.347V38.76l-4.347,2.173v19.559
					L382.979,56.146z M396.019,30.067V19.201l-4.347,2.173V32.24L396.019,30.067z"/>
				<path fill="#FFFFFF" d="M409.058,56.146V17.028l13.039-6.52l8.692,4.346v8.693l-8.692-4.347l-4.347,2.173v30.425l4.347-2.173
					v-4.347l8.692,4.347v4.346l-13.039,6.52L409.058,56.146z"/>
				<path fill="#FFFFFF" d="M435.136,56.146V17.028l8.692-4.347v47.81L435.136,56.146z"/>
				<path fill="#FFFFFF" d="M448.175,56.146V17.028l13.039-6.52l8.692,4.346v39.117l-8.692,4.347V38.76l-4.347,2.173v19.559
					L448.175,56.146z M461.214,30.067V19.201l-4.347,2.173V32.24L461.214,30.067z"/>
				<path fill="#FFFFFF" d="M474.253,56.146V17.028l8.692-4.347v39.117l4.347-2.173v-4.347l8.692,4.347v4.346l-13.039,6.52
					L474.253,56.146z"/>
			</g>
		</g>
	</g>
	<g>
		<path fill="none" stroke="#0099FF" stroke-miterlimit="10" d="M0.5,56.146V14.854l8.693-4.346l13.039,6.52V32.24l-4.347,2.173
			l4.347,2.174v17.385l-13.039,6.52L0.5,56.146z M13.539,27.894v-6.52l-4.346-2.173v10.866L13.539,27.894z M13.539,49.626v-8.693
			L9.193,38.76v13.039L13.539,49.626z"/>
		<path fill="none" stroke="#0099FF" stroke-miterlimit="10" d="M26.578,56.146V17.028l13.039-6.52l8.693,4.346v39.117l-8.693,4.347
			V38.76l-4.346,2.173v19.559L26.578,56.146z M39.617,30.067V19.201l-4.346,2.173V32.24L39.617,30.067z"/>
		<path fill="none" stroke="#0099FF" stroke-miterlimit="10" d="M52.656,56.146V14.854l8.693-4.346v8.692l13.039-6.52v8.692
			l-13.039,6.52v23.905l4.346-2.173v-4.347l8.693,4.347v4.346l-13.039,6.52L52.656,56.146z"/>
		<path fill="none" stroke="#0099FF" stroke-miterlimit="10" d="M78.734,56.146V17.028l13.039-6.52l8.693,4.346v39.117l-8.693,4.347
			V38.76l-4.346,2.173v19.559L78.734,56.146z M91.773,30.067V19.201l-4.346,2.173V32.24L91.773,30.067z"/>
		<path fill="none" stroke="#0099FF" stroke-miterlimit="10" d="M104.812,56.146V17.028l8.693-4.347v39.117l4.346-2.173v-4.347
			l8.693,4.347v4.346l-13.039,6.52L104.812,56.146z"/>
		<path fill="none" stroke="#0099FF" stroke-miterlimit="10" d="M130.891,56.146V17.028l8.693-4.347v39.117l4.346-2.173v-4.347
			l8.693,4.347v4.346l-13.039,6.52L130.891,56.146z"/>
		<path fill="none" stroke="#0099FF" stroke-miterlimit="10" d="M156.969,56.146V17.028l13.039-6.52l8.693,4.346v39.117
			l-8.693,4.347V38.76l-4.346,2.173v19.559L156.969,56.146z M170.008,30.067V19.201l-4.346,2.173V32.24L170.008,30.067z"/>
		<path fill="none" stroke="#0099FF" stroke-miterlimit="10" d="M304.745,56.146V17.028l13.039-6.52l8.692,4.346v8.693l-8.692-4.347
			l-4.347,2.173v8.693l4.347-2.174l8.692,4.347l-13.039,6.52v13.039l4.347-2.173v-4.347l8.692,4.347v4.346l-13.039,6.52
			L304.745,56.146z"/>
		<path fill="none" stroke="#0099FF" stroke-miterlimit="10" d="M330.823,56.146v-8.693l8.692,4.347l4.347-2.173v-8.693
			l-13.039-6.52V17.028l13.039-6.52l8.692,4.346v8.693l-8.692-4.347l-4.347,2.173v8.693l13.039,6.52v17.385l-13.039,6.52
			L330.823,56.146z"/>
		<path fill="none" stroke="#0099FF" stroke-miterlimit="10" d="M356.901,56.146V14.854l8.692-4.346l13.039,6.52v17.385
			l-13.039,6.52v19.559L356.901,56.146z M369.94,30.067v-8.693l-4.347-2.173V32.24L369.94,30.067z"/>
		<path fill="none" stroke="#0099FF" stroke-miterlimit="10" d="M382.979,56.146V17.028l13.039-6.52l8.692,4.346v39.117
			l-8.692,4.347V38.76l-4.347,2.173v19.559L382.979,56.146z M396.019,30.067V19.201l-4.347,2.173V32.24L396.019,30.067z"/>
		<path fill="none" stroke="#0099FF" stroke-miterlimit="10" d="M409.058,56.146V17.028l13.039-6.52l8.692,4.346v8.693l-8.692-4.347
			l-4.347,2.173v30.425l4.347-2.173v-4.347l8.692,4.347v4.346l-13.039,6.52L409.058,56.146z"/>
		<path fill="none" stroke="#0099FF" stroke-miterlimit="10" d="M435.136,56.146V17.028l8.692-4.347v47.81L435.136,56.146z"/>
		<path fill="none" stroke="#0099FF" stroke-miterlimit="10" d="M448.175,56.146V17.028l13.039-6.52l8.692,4.346v39.117
			l-8.692,4.347V38.76l-4.347,2.173v19.559L448.175,56.146z M461.214,30.067V19.201l-4.347,2.173V32.24L461.214,30.067z"/>
		<path fill="none" stroke="#0099FF" stroke-miterlimit="10" d="M474.253,56.146V17.028l8.692-4.347v39.117l4.347-2.173v-4.347
			l8.692,4.347v4.346l-13.039,6.52L474.253,56.146z"/>
	</g>
</g>
<path fill="none" stroke="#0099FF" stroke-miterlimit="10" d="M210.027,51.312c0,0,2.531,11.882,3.273,12.808
	c0.294,0.371,0.857,0.805,1.872,0.805c0.499,0,5.859-1.279,5.859-1.279L238.79,70.5c0,0,3.071-0.017,3.511,0l17.759-6.802
	c0,0,4.854,1.221,5.348,1.221c1.061,0,1.61-0.503,1.846-0.806c0.717-0.941,3.549-12.845,3.549-12.845s0.728,0.492,1.168,0.492
	c0.194,0,0.367-0.039,0.509-0.086c0.315-0.049,0.691-0.186,1.048-0.527c0.952-0.905,2.023-3.398,1.875-14.729l-0.004-0.539
	c0-5.188-0.668-26.567-3.861-26.567c-0.729,0-1.384,0.281-1.891,0.803c-1.143,1.188-1.305,18.745-1.275,20.301l-7.295-1.162
	c-0.394-0.926-0.767-1.823-1.117-2.682c-2.174-5.36-8.633-19.571-10.26-20.561c-0.273-0.163-9.007-5.505-9.39-5.505
	c-0.359,0-0.685-0.016-0.747,0c-0.074,0.019-8.547,5.385-8.617,5.417c-0.601,0.271-7.697,12.408-11.173,20.974
	c-0.352,0.871-0.733,1.79-1.132,2.729l-6.175,0.789c0.025-1.504-0.144-18.958-1.258-20.117c-0.511-0.527-1.17-0.808-1.913-0.808
	c-3.189,0-3.859,21.324-3.859,26.474l-0.006,0.539c-0.145,11.299,0.924,13.777,1.875,14.683c0.362,0.348,0.741,0.484,1.057,0.535
	C208.815,51.858,210.027,51.312,210.027,51.312z"/>
<g>
	
		<image overflow="visible" width="308" height="66" xlink:href="EBAF48DD221C7429.png"  transform="matrix(1 0 0 1 86.915 75.4707)">
	</image>
	<g>
		<g>
			<path d="M114.805,116.769h-3.059v-16.503h5.413c4.312,0,5.809,2.509,5.809,5.26c0,2.771-1.496,5.28-5.809,5.28h-2.354V116.769z
				 M114.805,107.879h2.398c2.134,0,2.53-1.298,2.53-2.354c0-1.057-0.396-2.333-2.53-2.333h-2.398V107.879z"/>
			<path d="M127.96,113.842h6.865v2.927h-9.879v-16.503h3.015V113.842z"/>
			<path d="M136.144,116.769l5.875-16.854h2.112l5.853,16.854h-3.278l-1.386-4.181h-4.555l-1.32,4.181H136.144z M143.075,105.393
				l-1.386,4.312h2.729L143.075,105.393z"/>
			<path d="M156.402,103.192v13.576h-3.059v-13.576h-4.137v-2.927h11.332v2.927H156.402z"/>
			<path d="M160.095,116.769l5.875-16.854h2.112l5.853,16.854h-3.278l-1.386-4.181h-4.555l-1.32,4.181H160.095z M167.025,105.393
				l-1.386,4.312h2.729L167.025,105.393z"/>
			<path d="M185.418,109.705h-6.337v7.063h-3.059v-16.503h10.1v2.927h-7.041v3.587h6.337V109.705z"/>
			<path d="M194.503,117.121c-5.633,0-6.403-4.291-6.403-8.604s0.771-8.604,6.403-8.604c5.655,0,6.403,4.291,6.403,8.604
				S200.158,117.121,194.503,117.121z M194.503,102.84c-2.861,0-3.279,2.663-3.279,5.678c0,3.014,0.418,5.677,3.279,5.677
				c2.86,0,3.278-2.663,3.278-5.677C197.782,105.503,197.364,102.84,194.503,102.84z"/>
			<path d="M206.69,116.769h-3.037v-16.503h5.479c4.356,0,5.721,1.915,5.721,4.973c0,2.091-0.594,3.609-2.42,4.424
				c0.33,0.703,0.748,1.43,1.145,2.156c0.792,1.496,1.914,3.652,2.596,4.95h-3.675l-3.19-6.513h-2.618V116.769z M206.69,107.329
				h2.729c1.936,0,2.222-0.924,2.222-2.091c0-1.144-0.286-2.046-2.222-2.046h-2.729V107.329z"/>
			<path d="M226.821,114.678h-2.2l-3.696-8.449l0.11,10.54h-2.993v-16.503h3.345l4.334,10.1l4.335-10.1h3.344v16.503h-2.993
				l0.11-10.605L226.821,114.678z"/>
			<path d="M235.488,116.769l5.875-16.854h2.112l5.853,16.854h-3.278l-1.386-4.181h-4.555l-1.32,4.181H235.488z M242.418,105.393
				l-1.386,4.312h2.729L242.418,105.393z"/>
			<path d="M265.409,109.705h-6.557v4.137h7.238v2.927h-10.275v-16.503h10.275v2.927h-7.238v3.587h6.557V109.705z"/>
			<path d="M268.839,116.769v-16.503h4.885c5.523,0,7.086,3.564,7.086,8.252c0,4.687-1.562,8.251-7.086,8.251H268.839z
				 M271.876,113.842h1.914c2.971,0,3.873-2.223,3.873-5.324c0-3.103-0.902-5.325-3.873-5.325h-1.914V113.842z"/>
			<path d="M292.601,111.158v-10.893h3.037v11.156c0,4.906-4.027,5.699-6.096,5.699s-6.095-0.793-6.095-5.699v-11.156h3.036v10.893
				c0,2.771,2.002,3.014,3.059,3.014S292.601,113.93,292.601,111.158z"/>
			<path d="M304.986,99.914c1.937,0,3.564,0.352,4.687,0.836v3.146c-2.068-0.836-3.345-1.057-4.687-1.057
				c-2.663,0-3.587,2.531-3.587,5.678s0.924,5.677,3.587,5.677c1.342,0,2.618-0.22,4.687-1.056v3.146
				c-1.122,0.483-2.75,0.836-4.687,0.836c-5.083,0-6.712-3.917-6.712-8.604C298.274,103.83,299.903,99.914,304.986,99.914z"/>
			<path d="M310.99,116.769l5.874-16.854h2.113l5.853,16.854h-3.278l-1.387-4.181h-4.555l-1.32,4.181H310.99z M317.921,105.393
				l-1.387,4.312h2.729L317.921,105.393z"/>
			<path d="M331.249,103.192v13.576h-3.059v-13.576h-4.137v-2.927h11.331v2.927H331.249z"/>
			<path d="M337.913,116.769v-16.503h3.059v16.503H337.913z"/>
			<path d="M353.82,100.266h3.301l-5.853,16.855h-2.135l-5.853-16.855h3.3l3.631,11.706L353.82,100.266z"/>
			<path d="M356.237,116.769l5.874-16.854h2.112l5.854,16.854h-3.279l-1.386-4.181h-4.555l-1.32,4.181H356.237z M363.167,105.393
				l-1.386,4.312h2.729L363.167,105.393z"/>
		</g>
	</g>
</g>
<g>
	<g>
		<path fill="#FFFFFF" d="M114.805,118.769h-3.059v-16.503h5.413c4.312,0,5.809,2.509,5.809,5.26c0,2.771-1.496,5.28-5.809,5.28
			h-2.354V118.769z M114.805,109.879h2.398c2.134,0,2.53-1.298,2.53-2.354c0-1.057-0.396-2.333-2.53-2.333h-2.398V109.879z"/>
		<path fill="#FFFFFF" d="M127.96,115.842h6.865v2.927h-9.879v-16.503h3.015V115.842z"/>
		<path fill="#FFFFFF" d="M136.144,118.769l5.875-16.854h2.112l5.853,16.854h-3.278l-1.386-4.181h-4.555l-1.32,4.181H136.144z
			 M143.075,107.393l-1.386,4.312h2.729L143.075,107.393z"/>
		<path fill="#FFFFFF" d="M156.402,105.192v13.576h-3.059v-13.576h-4.137v-2.927h11.332v2.927H156.402z"/>
		<path fill="#FFFFFF" d="M160.095,118.769l5.875-16.854h2.112l5.853,16.854h-3.278l-1.386-4.181h-4.555l-1.32,4.181H160.095z
			 M167.025,107.393l-1.386,4.312h2.729L167.025,107.393z"/>
		<path fill="#FFFFFF" d="M185.418,111.705h-6.337v7.063h-3.059v-16.503h10.1v2.927h-7.041v3.587h6.337V111.705z"/>
		<path fill="#FFFFFF" d="M194.503,119.121c-5.633,0-6.403-4.291-6.403-8.604s0.771-8.604,6.403-8.604
			c5.655,0,6.403,4.291,6.403,8.604S200.158,119.121,194.503,119.121z M194.503,104.84c-2.861,0-3.279,2.663-3.279,5.678
			c0,3.014,0.418,5.677,3.279,5.677c2.86,0,3.278-2.663,3.278-5.677C197.782,107.503,197.364,104.84,194.503,104.84z"/>
		<path fill="#FFFFFF" d="M206.69,118.769h-3.037v-16.503h5.479c4.356,0,5.721,1.915,5.721,4.973c0,2.091-0.594,3.609-2.42,4.424
			c0.33,0.703,0.748,1.43,1.145,2.156c0.792,1.496,1.914,3.652,2.596,4.95h-3.675l-3.19-6.513h-2.618V118.769z M206.69,109.329
			h2.729c1.936,0,2.222-0.924,2.222-2.091c0-1.144-0.286-2.046-2.222-2.046h-2.729V109.329z"/>
		<path fill="#FFFFFF" d="M226.821,116.678h-2.2l-3.696-8.449l0.11,10.54h-2.993v-16.503h3.345l4.334,10.1l4.335-10.1h3.344v16.503
			h-2.993l0.11-10.605L226.821,116.678z"/>
		<path fill="#FFFFFF" d="M235.488,118.769l5.875-16.854h2.112l5.853,16.854h-3.278l-1.386-4.181h-4.555l-1.32,4.181H235.488z
			 M242.418,107.393l-1.386,4.312h2.729L242.418,107.393z"/>
		<path fill="#FFFFFF" d="M265.409,111.705h-6.557v4.137h7.238v2.927h-10.275v-16.503h10.275v2.927h-7.238v3.587h6.557V111.705z"/>
		<path fill="#FFFFFF" d="M268.839,118.769v-16.503h4.885c5.523,0,7.086,3.564,7.086,8.252c0,4.687-1.562,8.251-7.086,8.251H268.839
			z M271.876,115.842h1.914c2.971,0,3.873-2.223,3.873-5.324c0-3.103-0.902-5.325-3.873-5.325h-1.914V115.842z"/>
		<path fill="#FFFFFF" d="M292.601,113.158v-10.893h3.037v11.156c0,4.906-4.027,5.699-6.096,5.699s-6.095-0.793-6.095-5.699v-11.156
			h3.036v10.893c0,2.771,2.002,3.014,3.059,3.014S292.601,115.93,292.601,113.158z"/>
		<path fill="#FFFFFF" d="M304.986,101.914c1.937,0,3.564,0.352,4.687,0.836v3.146c-2.068-0.836-3.345-1.057-4.687-1.057
			c-2.663,0-3.587,2.531-3.587,5.678s0.924,5.677,3.587,5.677c1.342,0,2.618-0.22,4.687-1.056v3.146
			c-1.122,0.483-2.75,0.836-4.687,0.836c-5.083,0-6.712-3.917-6.712-8.604C298.274,105.83,299.903,101.914,304.986,101.914z"/>
		<path fill="#FFFFFF" d="M310.99,118.769l5.874-16.854h2.113l5.853,16.854h-3.278l-1.387-4.181h-4.555l-1.32,4.181H310.99z
			 M317.921,107.393l-1.387,4.312h2.729L317.921,107.393z"/>
		<path fill="#FFFFFF" d="M331.249,105.192v13.576h-3.059v-13.576h-4.137v-2.927h11.331v2.927H331.249z"/>
		<path fill="#FFFFFF" d="M337.913,118.769v-16.503h3.059v16.503H337.913z"/>
		<path fill="#FFFFFF" d="M353.82,102.266h3.301l-5.853,16.855h-2.135l-5.853-16.855h3.3l3.631,11.706L353.82,102.266z"/>
		<path fill="#FFFFFF" d="M356.237,118.769l5.874-16.854h2.112l5.854,16.854h-3.279l-1.386-4.181h-4.555l-1.32,4.181H356.237z
			 M363.167,107.393l-1.386,4.312h2.729L363.167,107.393z"/>
	</g>
</g>
</svg>
