<?xml version="1.0" encoding="UTF-8" standalone="no"?>
<!-- Generator: Adobe Illustrator 16.0.4, SVG Export Plug-In . SVG Version: 6.00 Build 0)  -->

<svg
   xmlns:dc="http://purl.org/dc/elements/1.1/"
   xmlns:cc="http://creativecommons.org/ns#"
   xmlns:rdf="http://www.w3.org/1999/02/22-rdf-syntax-ns#"
   xmlns:svg="http://www.w3.org/2000/svg"
   xmlns="http://www.w3.org/2000/svg"
   xmlns:sodipodi="http://sodipodi.sourceforge.net/DTD/sodipodi-0.dtd"
   xmlns:inkscape="http://www.inkscape.org/namespaces/inkscape"
   version="1.1"
   id="Layer_1"
   x="0px"
   y="0px"
   width="496.484px"
   height="119.121px"
   viewBox="0 0 496.484 119.121"
   enable-background="new 0 0 496.484 119.121"
   xml:space="preserve"
   inkscape:version="0.48.4 r9939"
   sodipodi:docname="titulo.svg"><metadata
     id="metadata185"><rdf:RDF><cc:Work
         rdf:about=""><dc:format>image/svg+xml</dc:format><dc:type
           rdf:resource="http://purl.org/dc/dcmitype/StillImage" /><dc:title></dc:title></cc:Work></rdf:RDF></metadata><defs
     id="defs183" /><sodipodi:namedview
     pagecolor="#ffffff"
     bordercolor="#666666"
     borderopacity="1"
     objecttolerance="10"
     gridtolerance="10"
     guidetolerance="10"
     inkscape:pageopacity="0"
     inkscape:pageshadow="2"
     inkscape:window-width="1375"
     inkscape:window-height="876"
     id="namedview181"
     showgrid="false"
     inkscape:zoom="9.2812657"
     inkscape:cx="217.53351"
     inkscape:cy="3.7890336"
     inkscape:window-x="65"
     inkscape:window-y="24"
     inkscape:window-maximized="1"
     inkscape:current-layer="Layer_1" /><g
     id="g59"
     style="fill:#ffffff;fill-opacity:1"><path
       style="fill:#ffffff;stroke:#0099ff;stroke-miterlimit:10;fill-opacity:1"
       inkscape:connector-curvature="0"
       id="path61"
       d="M 0.5,56.146 V 14.854 l 8.693,-4.346 13.039,6.52 V 32.24 l -4.347,2.173 4.347,2.174 V 53.972 L 9.193,60.492 0.5,56.146 z M 13.539,27.894 v -6.52 L 9.193,19.201 v 10.866 l 4.346,-2.173 z m 0,21.732 V 40.933 L 9.193,38.76 v 13.039 l 4.346,-2.173 z"
       stroke-miterlimit="10" /><path
       style="fill:#ffffff;stroke:#0099ff;stroke-miterlimit:10;fill-opacity:1"
       inkscape:connector-curvature="0"
       id="path63"
       d="M 26.578,56.146 V 17.028 l 13.039,-6.52 8.693,4.346 v 39.117 l -8.693,4.347 V 38.76 l -4.346,2.173 V 60.492 L 26.578,56.146 z M 39.617,30.067 V 19.201 l -4.346,2.173 V 32.24 l 4.346,-2.173 z"
       stroke-miterlimit="10" /><path
       style="fill:#ffffff;stroke:#0099ff;stroke-miterlimit:10;fill-opacity:1"
       inkscape:connector-curvature="0"
       id="path65"
       d="M 52.656,56.146 V 14.854 l 8.693,-4.346 V 19.2 l 13.039,-6.52 v 8.692 l -13.039,6.52 v 23.905 l 4.346,-2.173 v -4.347 l 8.693,4.347 v 4.346 l -13.039,6.52 -8.693,-4.344 z"
       stroke-miterlimit="10" /><path
       style="fill:#ffffff;stroke:#0099ff;stroke-miterlimit:10;fill-opacity:1"
       inkscape:connector-curvature="0"
       id="path67"
       d="M 78.734,56.146 V 17.028 l 13.039,-6.52 8.693,4.346 v 39.117 l -8.693,4.347 V 38.76 l -4.346,2.173 V 60.492 L 78.734,56.146 z M 91.773,30.067 V 19.201 l -4.346,2.173 V 32.24 l 4.346,-2.173 z"
       stroke-miterlimit="10" /><path
       style="fill:#ffffff;stroke:#0099ff;stroke-miterlimit:10;fill-opacity:1"
       inkscape:connector-curvature="0"
       id="path69"
       d="M 104.812,56.146 V 17.028 l 8.693,-4.347 v 39.117 l 4.346,-2.173 v -4.347 l 8.693,4.347 v 4.346 l -13.039,6.52 -8.693,-4.345 z"
       stroke-miterlimit="10" /><path
       style="fill:#ffffff;stroke:#0099ff;stroke-miterlimit:10;fill-opacity:1"
       inkscape:connector-curvature="0"
       id="path71"
       d="M 130.891,56.146 V 17.028 l 8.693,-4.347 v 39.117 l 4.346,-2.173 v -4.347 l 8.693,4.347 v 4.346 l -13.039,6.52 -8.693,-4.345 z"
       stroke-miterlimit="10" /><path
       style="fill:#ffffff;stroke:#0099ff;stroke-miterlimit:10;fill-opacity:1"
       inkscape:connector-curvature="0"
       id="path73"
       d="M 156.969,56.146 V 17.028 l 13.039,-6.52 8.693,4.346 v 39.117 l -8.693,4.347 V 38.76 l -4.346,2.173 v 19.559 l -8.693,-4.346 z M 170.008,30.067 V 19.201 l -4.346,2.173 V 32.24 l 4.346,-2.173 z"
       stroke-miterlimit="10" /><path
       style="fill:#ffffff;stroke:#0099ff;stroke-miterlimit:10;fill-opacity:1"
       inkscape:connector-curvature="0"
       id="path75"
       d="M 304.745,56.146 V 17.028 l 13.039,-6.52 8.692,4.346 v 8.693 l -8.692,-4.347 -4.347,2.173 v 8.693 l 4.347,-2.174 8.692,4.347 -13.039,6.52 v 13.039 l 4.347,-2.173 v -4.347 l 8.692,4.347 v 4.346 l -13.039,6.52 -8.692,-4.345 z"
       stroke-miterlimit="10" /><path
       style="fill:#ffffff;stroke:#0099ff;stroke-miterlimit:10;fill-opacity:1"
       inkscape:connector-curvature="0"
       id="path77"
       d="m 330.823,56.146 v -8.693 l 8.692,4.347 4.347,-2.173 v -8.693 l -13.039,-6.52 V 17.028 l 13.039,-6.52 8.692,4.346 v 8.693 l -8.692,-4.347 -4.347,2.173 v 8.693 l 13.039,6.52 v 17.385 l -13.039,6.52 -8.692,-4.345 z"
       stroke-miterlimit="10" /><path
       style="fill:#ffffff;stroke:#0099ff;stroke-miterlimit:10;fill-opacity:1"
       inkscape:connector-curvature="0"
       id="path79"
       d="M 356.901,56.146 V 14.854 l 8.692,-4.346 13.039,6.52 v 17.385 l -13.039,6.52 v 19.559 l -8.692,-4.346 z M 369.94,30.067 v -8.693 l -4.347,-2.173 V 32.24 l 4.347,-2.173 z"
       stroke-miterlimit="10" /><path
       style="fill:#ffffff;stroke:#0099ff;stroke-miterlimit:10;fill-opacity:1"
       inkscape:connector-curvature="0"
       id="path81"
       d="M 382.979,56.146 V 17.028 l 13.039,-6.52 8.692,4.346 v 39.117 l -8.692,4.347 V 38.76 l -4.347,2.173 v 19.559 l -8.692,-4.346 z m 13.04,-26.079 V 19.201 l -4.347,2.173 V 32.24 l 4.347,-2.173 z"
       stroke-miterlimit="10" /><path
       style="fill:#ffffff;stroke:#0099ff;stroke-miterlimit:10;fill-opacity:1"
       inkscape:connector-curvature="0"
       id="path83"
       d="M 409.058,56.146 V 17.028 l 13.039,-6.52 8.692,4.346 v 8.693 l -8.692,-4.347 -4.347,2.173 v 30.425 l 4.347,-2.173 v -4.347 l 8.692,4.347 v 4.346 l -13.039,6.52 -8.692,-4.345 z"
       stroke-miterlimit="10" /><path
       style="fill:#ffffff;stroke:#0099ff;stroke-miterlimit:10;fill-opacity:1"
       inkscape:connector-curvature="0"
       id="path85"
       d="M 435.136,56.146 V 17.028 l 8.692,-4.347 v 47.81 l -8.692,-4.345 z"
       stroke-miterlimit="10" /><path
       style="fill:#ffffff;stroke:#0099ff;stroke-miterlimit:10;fill-opacity:1"
       inkscape:connector-curvature="0"
       id="path87"
       d="M 448.175,56.146 V 17.028 l 13.039,-6.52 8.692,4.346 v 39.117 l -8.692,4.347 V 38.76 l -4.347,2.173 v 19.559 l -8.692,-4.346 z M 461.214,30.067 V 19.201 l -4.347,2.173 V 32.24 l 4.347,-2.173 z"
       stroke-miterlimit="10" /><path
       style="fill:#ffffff;stroke:#0099ff;stroke-miterlimit:10;fill-opacity:1"
       inkscape:connector-curvature="0"
       id="path89"
       d="M 474.253,56.146 V 17.028 l 8.692,-4.347 v 39.117 l 4.347,-2.173 v -4.347 l 8.692,4.347 v 4.346 l -13.039,6.52 -8.692,-4.345 z"
       stroke-miterlimit="10" /></g><path
     style="fill:#ffffff;stroke:#0099ff;stroke-miterlimit:10;fill-opacity:1"
     inkscape:connector-curvature="0"
     stroke-miterlimit="10"
     d="m 210.027,51.312 c 0,0 2.531,11.882 3.273,12.808 0.294,0.371 0.857,0.805 1.872,0.805 0.499,0 5.859,-1.279 5.859,-1.279 L 238.79,70.5 c 0,0 3.071,-0.017 3.511,0 l 17.759,-6.802 c 0,0 4.854,1.221 5.348,1.221 1.061,0 1.61,-0.503 1.846,-0.806 0.717,-0.941 3.549,-12.845 3.549,-12.845 0,0 0.728,0.492 1.168,0.492 0.194,0 0.367,-0.039 0.509,-0.086 0.315,-0.049 0.691,-0.186 1.048,-0.527 0.952,-0.905 2.023,-3.398 1.875,-14.729 l -0.004,-0.539 c 0,-5.188 -0.668,-26.567 -3.861,-26.567 -0.729,0 -1.384,0.281 -1.891,0.803 -1.143,1.188 -1.305,18.745 -1.275,20.301 l -7.295,-1.162 c -0.394,-0.926 -0.767,-1.823 -1.117,-2.682 -2.174,-5.36 -8.633,-19.571 -10.26,-20.561 -0.273,-0.163 -9.007,-5.505 -9.39,-5.505 -0.359,0 -0.685,-0.016 -0.747,0 -0.074,0.019 -8.547,5.385 -8.617,5.417 -0.601,0.271 -7.697,12.408 -11.173,20.974 -0.352,0.871 -0.733,1.79 -1.132,2.729 l -6.175,0.789 c 0.025,-1.504 -0.144,-18.958 -1.258,-20.117 -0.511,-0.527 -1.17,-0.808 -1.913,-0.808 -3.189,0 -3.859,21.324 -3.859,26.474 l -0.006,0.539 c -0.145,11.299 0.924,13.777 1.875,14.683 0.362,0.348 0.741,0.484 1.057,0.535 0.453,0.137 1.665,-0.409 1.665,-0.409 z"
     id="path91" /><g
     id="g139"><g
       id="g141"><path
         d="M114.805,118.769h-3.059v-16.503h5.413c4.312,0,5.809,2.509,5.809,5.26c0,2.771-1.496,5.28-5.809,5.28    h-2.354V118.769z M114.805,109.879h2.398c2.134,0,2.53-1.298,2.53-2.354c0-1.057-0.396-2.333-2.53-2.333h-2.398V109.879z"
         id="path143"
         fill="#FFFFFF" /><path
         d="M127.96,115.842h6.865v2.927h-9.879v-16.503h3.015V115.842z"
         id="path145"
         fill="#FFFFFF" /><path
         d="M136.144,118.769l5.875-16.854h2.112l5.853,16.854h-3.278l-1.386-4.181h-4.555l-1.32,4.181H136.144z     M143.075,107.393l-1.386,4.312h2.729L143.075,107.393z"
         id="path147"
         fill="#FFFFFF" /><path
         d="M156.402,105.192v13.576h-3.059v-13.576h-4.137v-2.927h11.332v2.927H156.402z"
         id="path149"
         fill="#FFFFFF" /><path
         d="M160.095,118.769l5.875-16.854h2.112l5.853,16.854h-3.278l-1.386-4.181h-4.555l-1.32,4.181H160.095z     M167.025,107.393l-1.386,4.312h2.729L167.025,107.393z"
         id="path151"
         fill="#FFFFFF" /><path
         d="M185.418,111.705h-6.337v7.063h-3.059v-16.503h10.1v2.927h-7.041v3.587h6.337V111.705z"
         id="path153"
         fill="#FFFFFF" /><path
         d="M194.503,119.121c-5.633,0-6.403-4.291-6.403-8.604s0.771-8.604,6.403-8.604    c5.655,0,6.403,4.291,6.403,8.604S200.158,119.121,194.503,119.121z M194.503,104.84c-2.861,0-3.279,2.663-3.279,5.678    c0,3.014,0.418,5.677,3.279,5.677c2.86,0,3.278-2.663,3.278-5.677C197.782,107.503,197.364,104.84,194.503,104.84z"
         id="path155"
         fill="#FFFFFF" /><path
         d="M206.69,118.769h-3.037v-16.503h5.479c4.356,0,5.721,1.915,5.721,4.973c0,2.091-0.594,3.609-2.42,4.424    c0.33,0.703,0.748,1.43,1.145,2.156c0.792,1.496,1.914,3.652,2.596,4.95h-3.675l-3.19-6.513h-2.618V118.769z M206.69,109.329    h2.729c1.936,0,2.222-0.924,2.222-2.091c0-1.144-0.286-2.046-2.222-2.046h-2.729V109.329z"
         id="path157"
         fill="#FFFFFF" /><path
         d="M226.821,116.678h-2.2l-3.696-8.449l0.11,10.54h-2.993v-16.503h3.345l4.334,10.1l4.335-10.1h3.344v16.503    h-2.993l0.11-10.605L226.821,116.678z"
         id="path159"
         fill="#FFFFFF" /><path
         d="M235.488,118.769l5.875-16.854h2.112l5.853,16.854h-3.278l-1.386-4.181h-4.555l-1.32,4.181H235.488z     M242.418,107.393l-1.386,4.312h2.729L242.418,107.393z"
         id="path161"
         fill="#FFFFFF" /><path
         d="M265.409,111.705h-6.557v4.137h7.238v2.927h-10.275v-16.503h10.275v2.927h-7.238v3.587h6.557V111.705z"
         id="path163"
         fill="#FFFFFF" /><path
         d="M268.839,118.769v-16.503h4.885c5.523,0,7.086,3.564,7.086,8.252c0,4.687-1.562,8.251-7.086,8.251H268.839    z M271.876,115.842h1.914c2.971,0,3.873-2.223,3.873-5.324c0-3.103-0.902-5.325-3.873-5.325h-1.914V115.842z"
         id="path165"
         fill="#FFFFFF" /><path
         d="M292.601,113.158v-10.893h3.037v11.156c0,4.906-4.027,5.699-6.096,5.699s-6.095-0.793-6.095-5.699v-11.156    h3.036v10.893c0,2.771,2.002,3.014,3.059,3.014S292.601,115.93,292.601,113.158z"
         id="path167"
         fill="#FFFFFF" /><path
         d="M304.986,101.914c1.937,0,3.564,0.352,4.687,0.836v3.146c-2.068-0.836-3.345-1.057-4.687-1.057    c-2.663,0-3.587,2.531-3.587,5.678s0.924,5.677,3.587,5.677c1.342,0,2.618-0.22,4.687-1.056v3.146    c-1.122,0.483-2.75,0.836-4.687,0.836c-5.083,0-6.712-3.917-6.712-8.604C298.274,105.83,299.903,101.914,304.986,101.914z"
         id="path169"
         fill="#FFFFFF" /><path
         d="M310.99,118.769l5.874-16.854h2.113l5.853,16.854h-3.278l-1.387-4.181h-4.555l-1.32,4.181H310.99z     M317.921,107.393l-1.387,4.312h2.729L317.921,107.393z"
         id="path171"
         fill="#FFFFFF" /><path
         d="M331.249,105.192v13.576h-3.059v-13.576h-4.137v-2.927h11.331v2.927H331.249z"
         id="path173"
         fill="#FFFFFF" /><path
         d="M337.913,118.769v-16.503h3.059v16.503H337.913z"
         id="path175"
         fill="#FFFFFF" /><path
         d="M353.82,102.266h3.301l-5.853,16.855h-2.135l-5.853-16.855h3.3l3.631,11.706L353.82,102.266z"
         id="path177"
         fill="#FFFFFF" /><path
         d="M356.237,118.769l5.874-16.854h2.112l5.854,16.854h-3.279l-1.386-4.181h-4.555l-1.32,4.181H356.237z     M363.167,107.393l-1.386,4.312h2.729L363.167,107.393z"
         id="path179"
         fill="#FFFFFF" /></g></g><path
     style="fill:#00ace8"
     inkscape:connector-curvature="0"
     id="path15"
     d="m 227.965,29.222 c 0.049,-0.146 1.241,-3.623 3.989,-9.892 2.577,-5.874 7.125,-6.329 8.457,-6.329 0.328,0 0.513,0.024 0.513,0.024 8.467,0.118 11.833,15.64 11.973,16.299 0.061,0.294 -0.022,0.596 -0.229,0.811 -0.205,0.239 -0.518,0.366 -0.844,0.366 l 0,0 0,0 h -22.812 l 0,0 c -0.346,0 -0.672,-0.146 -0.879,-0.404 -0.212,-0.255 -0.271,-0.577 -0.168,-0.875 z" /><path
     style="fill:#00ace8"
     inkscape:connector-curvature="0"
     id="path17"
     d="m 241.666,36.678 v 12.651 c 0,0.645 -0.562,1.171 -1.25,1.171 -0.692,0 -1.25,-0.526 -1.25,-1.171 V 36.678 c 0,-0.649 0.558,-1.177 1.25,-1.177 0.688,0 1.25,0.532 1.25,1.177 z" /></svg>